<?xml version="1.0" encoding="UTF-8"?>
<svg id="Layer_1" xmlns="http://www.w3.org/2000/svg" version="1.1" viewBox="0 0 1344.9 1245.9">
  <!-- Generator: Adobe Illustrator 29.0.1, SVG Export Plug-In . SVG Version: 2.1.0 Build 192)  -->
  <defs>
    <style>
      .st0, .st1, .st2 {
        fill: #efeded;
      }

      .st0, .st3 {
        opacity: 0;
      }

      .st1 {
        stroke-width: .5px;
      }

      .st1, .st4, .st2 {
        fill-rule: evenodd;
        stroke: #fff;
      }

      .st4, .st2 {
        stroke-width: .2px;
      }

      .st4, .st3 {
        fill: silver;
      }
    </style>
  </defs>
  <path id="pe" class="st1" d="M519.3,737.4c4-8.1,10.8-14.3,7.2-2.2-1.9,4.4,2.1-3.6,9,6.1,5.5-2.2,4.5-12.8,8.4-15.2,9.7-4.9,22.9-13.3,20.4-23.7-1.8-2-3.3-3,.3-3,4.8-1.5,6.7,5.7,8.9,8,4,1.3,4.1,5.3,7.2,7.1.9,5.4,6.8,7.8,11.1,3,3.1.2,3,1.9,7.2.1,8.3,4.4,4.5,5.9,1.5,12.8.5,2.1,4.3.5,5,3.7,1.7,4.3-4.5-2.1-6.3,1-1.6,2-5.1,1.5-7.4,2.1-7.7,3.6-9.4,10.5-9.9,17.8-4.6,1.3-2.7,5.5-4.9,7.4-1.1,5.3,11,12.2,6.4,17,10.3,1.4,9.9,11.6,20.4.5-3.8,23.3,6.3,5.4,11.7,19.4,6.5,7-.2,13.1,3.7,21.2-1.2,3.3-4.2,6.3-1.4,9.5-.4,5.5-3.7-1.5-5.2,1.2-.3,1.4.3.9.5,2.7,0,.2-1.2-1.2-.7-.7-2.8,3.3,5.2,1.6,4,5,5.3,0,2.6,1.8,4,3.3-.9,3.7-5.2,5.1-3,8.4-5.7,7.2-1.9,1-2.2,1.5,1.5,4.5-3.1,7.5-6.5,3.5-11.9-13.4-31.2-16.8-42.8-30.8-1-1.4-5-7-2.8-6-.8-8.2-7.3-16.4-12.3-22.3-7-14.7-12.4-35-27.3-43.7-1.7,0-3.4-2.9-1.2-3.2,3.6-.8-3.4-8.6-2.7-11.8"/>
  <g id="bo">
    <path id="path2375" class="st1" d="M611.7,793.3c4.7-.4,8.8,3.7,11.1-2,7.9-3,9.8-8,19.7-8.9,2.7,6.4-.9,14.3,4.8,20.1,4,1.9,6.2,5.2,11,4.5,4.2,2.7,9.8,4.4,13.8,8.6,14.5-2.3,10.3,12.4,13.7,18.4-1.1,8.2,9.4,5.8,14.7,5.7-3.5,11.9,13.3,10.6,5.3,26.8,1.3,15-2-8.3-24.9,1.6-9,2.4-4.8,16-7.5,23.2-5-5.3-12.7-2-12,5.3-2.2-8.8-10-4.8-15.4-9.4-4.6,9.2-10.8,14.7-14.1.5-2.1-6.7-5.2-9.3-6.9-15,5.2-4.8-5.8-11.4-4.2-17.9-9.5-5.6-.6-10-.3-14,5.1-2.9-1.4.3.2-4.2-1.8-.3-.3-.8-4.2-3.3,2.7-3-1.4-4.3,0-7.3,1-2.4,3.3-4.4,1.8-6.9-.2-10,.5-16.9-6.5-25.7"/>
    <path id="path5225" class="st1" d="M619.9,838.9s-.5,0-1.1-.2c-.4-1.4,1.6-.8,1.1.2"/>
  </g>
  <g id="mx">
    <path id="Mexico_mainland" class="st1" d="M291.7,417.1c19.5-5.6,37.3,15.2,60.6,10.3-3-6.7,10.4-2.9,13-3.8,3.9,1.9,5.9,7.7,9.6,10.6,0,5.3,0,9.9,5.6,12.2,6.1,4.4,11.4-13.5,19.4-3,3,6.3,6.4,14.4,6.7,20.9.7,7.7,6.4,7.6,11.8,10.2,6-1.4-4.6,12.1-5.1,17.9-2.6,6.1,4.6-10.9,4.3-13.7-5,6.4-3.6,16.1-7.2,26.1.2,3,2.9,13,1.8,7.4-4-9.3,0,6.9,2.2,10.3,2.1,6.3,6.8,12.9,4.3,15.9,4.1-6.6,8.9,4.2,13.6,3,4.7-.2,3.9-3.4,11.2-2.2-.5-2,5.5-3.1,6.3-1.5-2.5.6,2.4,2.9,2.9.9,15.8-17.2,3.1-26.9,37.4-26.1,4.6,5.2-7.2,12.3-7.5,17.3,3.2-.3-1.9,6.4-3,11.7-1.9-1.6.5-8-2.4-3.5-7.4,9.1-11.6,5.4-21.9,7.5,0,2.9-.4,5-3.9,4.1,2.3,3.4,8.2,5.7,6.2,10.2-12.4-2.4-12.8,6.8-15.2,13.2-8.5-11.3-13.6-16.6-19-14.8-8.9,11.1-31.8-3.1-45.2-9.5-3.8-6.8-11.3-4.2-16.4-9.3-2.9-6.4-15.6-8.8-12.3-17.8,1.8-.3,4.5-2,1.2-2.4,2.9-3.2,3.9-5.9,1.2-9.5,2.2-8.5-12.2-20.6-10.2-22.5-5.2.8-1-6.3-4.6-6-2.5-1.4-3-4.2-4.9-2.7,1.4-2.8.5-.5-2-1.7-.9-4,4.9-5,1.6-8.7-3.2.7-2.2-2.4-3.2-3.8-3.7.5-4.3-5.1-1.9-6.4-9.5-1.4-12.3-19-9.8-28.7-.4-1-2-1-2.9-1.3-1.4-.5.4-2.3-1.7-2.5-2.8,2-4.8-1.8-7.2-3.3,1.9,6.1-6,14.7,0,20.2,3.7,5.8,4.7,10.1,5.8,16.8,2.5,3.3,2.8,5.9,3.2,9.8,2.1-9.8,1.7,10,3.5,8.9,1.1,3.6-1.9,10.8,2.6,11.6-1.6.2-.2.2,0-.1.6-2.7,1.9,1.1,3.3,1.6,4.6,7.8-4,13.8-4,4.9-22.6-22.5-2.1-6.2-14.6-30.6-3.5,6.3-9.4-4.2-12-7.3,1.7.2,3.9,1.1,5.4-.2,1.7,3.2,4.4,3.5,2.7-.5.1,2.6-2.4,2.1-1-.3-2.3,1,3.5-3.6,1.7-5.4-3.4-6.4-8.4-10.6-8.6-15.6.9-6.3-1.7-11.7-.6-17.7"/>
    <path id="path2614" class="st2" d="M337.3,482.3c1.5,3.4-1-2.2,0,0"/>
    <path id="path2594" class="st2" d="M272.9,446c-.9.5-.9,1.5-.4,2.2.5-.7-.1-1.5.4-2.2"/>
    <path id="path2596" class="st2" d="M293.3,453c-.5.6-2,2.5-.7,3,.4-.9,1.1-2,.7-3"/>
    <path id="path2600" class="st2" d="M306.7,483.7c.4.9.4,1.3,1.1,2.3-1.8-3.4,3.3-8.6-1.1-2.3"/>
    <path id="path2602" class="st2" d="M310.2,447.5c.2-.9-.4-4.5-1.5-4.6-1.7,0,1.2,4.4,1.5,4.6"/>
    <path id="path2604" class="st2" d="M308.2,486.2c.6.6,1.1,1.3,1.9,1.4-.3-.8-1-1.5-1.9-1.4"/>
    <path id="path2606" class="st2" d="M315.7,449.8c4.6-7.1-3.9-2.3,0,0"/>
    <path id="path2608" class="st2" d="M318.3,473c-1,.1-1.4,1-1.4,1.9.3-.8,1.4-1,1.4-1.9"/>
    <path id="path2610" class="st2" d="M318.9,481.3c-.1.8,0,1.5.4,2.2.9-.7.3-1.7-.4-2.2"/>
    <path id="path2612" class="st2" d="M324,489.8c.1-.6-.1-1.2-.6-1.5,0,.6.2,1.1.6,1.5"/>
    <path id="path2616" class="st2" d="M338,481.8c-.3.6-.2,1.1.4,1.4.1-.5,0-1-.4-1.4"/>
    <path id="path2618" class="st2" d="M343.2,510.9c0,.6.3,1,.9,1,0-.6-.3-1-.9-1"/>
    <path id="path2634" class="st2" d="M450,537.3c1,.2,1.7-.8,2.6-1.1-.9-.1-1.8.7-2.6,1.1"/>
    <path id="path2772" class="st2" d="M488.6,523.3c1-.8,1.9-1.7,2.4-2.9-.9.8-3.1.9-2.4,2.9"/>
  </g>
  <g id="bz">
    <path id="Belize_Blackbird_Cay" class="st2" d="M478.3,548.1c.6-.2.9-.6.7-1.2-.2.4-.5.8-.7,1.2"/>
    <path id="Belize_mainland" class="st1" d="M466.7,561.1c2.2-3.9,0-18.4,5.1-17.2.3-1.6,5.5-8.3,4.2-3.7,3.2-1.6.4,4.6,0,5.7-.9,7.2-2.5,13.3-9.4,15.3"/>
  </g>
  <g id="br">
    <path id="Brazil_mainland" class="st1" d="M576.4,763.7c2.2-2.6.9-7.2,5.5-8.5.6-3.6.8-8.5,2.1-12.3,3.6-2.6,16.6-11.2,20.1-6.8,4.4-6.2,6-22.6,4-31.4-5.4-8.5-5.8-11.3,3.3-13.1-1.7-4.2-7.7-1.3-5.3-7.8,3.2-2.4,11.6,2.7,12.6-2.2,2.9,1.3,2.3,2.3,5-1.1,4.7-1.8,2.6,6.3,4,7.6,2.3-1.4,2.9,2.6,5,3.2,3.1,1.3,7.4-4.7,6.4,1.5,1-3.1,22.8-15.9,14.7-15.5-4.3.4-3.4-4.6-4.3-8.7.2-2.7-4.9-4.5-3.8-7.3,1.2,2.3,4,.1,5,2.1.2,1,.6,1.3,1.7,1.1,5.9-.5,3.6,0,7.8,2.9.9-7.7,7.1-3.1,12.3-8.1,2.2.2,6.5-2.8,4.1-6.1,4.8-1.2,7.1,1.2,4.6,5.7,9.3,4.3-3.5,11.8,2.8,24.3,7.5,7.1,6.3,3.2,14.1.5,4.6-3.8,10.2-.8,14.6-2.2-1.3-2.8-1.1-5.5,2.4-4.1,2.4-.4,4.3-2.4,6.1,0,2.7,1.3,3.8,4,7.6.8,2.6,0,4.5,1.3,6.7,1.1,3.6-4.5,10.6-14.7,9.7-19.5,1.5,3,1.6,5.8,1.7,1.1,3.9,4.6,4,10.5,5.3,19.3,1.9,1.8,10.2,4.2,4.7,7.8,2.8,3.6-12.5,12.2-12.2,19.2-1.2,4-5.1,2.5-7.6,5.2,4.9.2,9.8-.8,13.7-6,1.7,3,.6,7.3,3.6,8.9,9.5,0,9.3-6.1,7.5,5.4,1.2-6.8,6.1-9.2,9.9-9.5-1.7-.1-3.6,0-1.2-1.6.7-1.3.2-5.2,2.8-4.4,2-2.2,4.4,1.7,4.1-1.7,2.3.3,3.6,3.9,4.7,1.2-.3,2.3,3.3.6.6,2.5,1.8-.6,3.3,1.6,4.1-.2.2,3.1,1.8.6,2.9,2.7,3.1.5,2.3.4,4.2,3.9-.1-1.6,1.5-3,2.3-1.2,1-3.3.4,2,2.1,1.2-1.4,1,.2,1,.7.1.7,1.2.7,4-1.5,4.7,7.3-3.3-.5,4.5.5,8.8,1.5-2.1,3-4,3.1-6.7,3.2-2.5,2.3.9.4,2.4.7-.5,1-.3.7.5.8-.4,2-3.7,2.5-2,6.1-6.2,12.4,5.6,28.3,1.6,9.4,2.9,15.1,11.6,22.5,17.2,8.9,4.9,16.4-.7,17.5,13.4,6.6,14.6-6.1,35.6-16.1,40.3,2.4-1-4.5,16.8-8.7,17,.8-1.7-1-2-1.5-3.4,0,.8-.9,3-1.6,1.3,2.5,1.8-.1,3.2,0,5.5-2.7-.7,1.7,4.5-1,3.2,4.1,9.5,1.4,30.9-2,45,1.8,9.4-7.6,14.3-7.8,23.6,2,5.9-8.8,4.5-6.5,11.5-2.1-1.9-5.4.6-7.6-.1-.7-2.8-1.7-3.5-1.1-.1-.3,1.1-4.9.7-6,1.3,3.1-.8,2.9-2-.4-1.3-2,.3-7.7.6-3.4,3-2.8.8-6,1.6-6.5,4.6-5.7-1.7-4.1,2.6-7,.7-5.2,3.9-11.5,13.7-14,11.7.6,3-4.4,1,.9,2.8-2.1,1.5,0,7-2.4,4.7,3.6,6.6,3.5,17.4,2.9,20.8-8.8,5-11.5,34.3-19.5,28.4,4.9,1.5,10-12.9,7.9-14-2.4,2.2-3.2,1-4.9-1.5,1.8,4.6.6,5,.5,7.4-.7,2.8-6,6.3-4,9,.6,1.9-2.5,19.4-7.5,13.6-.8-2.3-.2-4,1.2-5.7-.8-3.6-6.9-6.9-9.8-9.2-3.8-3.7-7.6-3.3-11.1-7.9.9,1.3-2.6,3.4-2.6.7-4.7-12.6-18.2-.4-10.1-10.2,6-8.1,7.6-16.1,17.2-20.5,6.8-.7,3.9-19.4-2.6-14.8-3.8-.8-.4-7.9-.7-11-1.6-13.3-5.7,8.8-14.2-17.8-2.5,0-4.1-3.8-5.5,0-1.4,3-3.6-1.3-6.9-1-4.8-.5-2.6-3.3-3.1-6.6,1.1-4.3-1.1-6.4-2.6-10.2-1.3-1.8,3.1-1.9,1.2-3.4-3.4-2.9,1.4-7.4.8-11.2,2.3-7.4-4-8.2-6.8-12.6-1.1-7,.4-7.3-7.5-7.1-15.5,1.2-2.2-22.5-16.7-24.3-5.4.6-4.5.3-6.9-2.7-4.4-1.3-7.5-4-11-5.7-7.2,0-12.7-5.1-15-11.7.5-1.7,1-2.5-.4-3.9-1-3.1,2.2-6.7-.7-9.2-4.9,1.2-10.3,2.6-14.3,6.1-1.7.1-2.1,3.5-4.1,2.4-2.5,0-1.6,3.5-4.3,3.6-8.7-2.7-20.2,4.1-16.2-11.7-.3-6.2-6.2,6.2-12.3,2.3.9-4.9-4.8-4.7-7.9-5.4,3.1-4.4-5.2-11.5-6.9-16"/>
    <path id="path2886" class="st2" d="M845.6,816c1.1-2.8-1.9-.5,0,0"/>
    <path id="path2814" class="st2" d="M739.5,711.8c.7-.1,1.4-.6,1.9-1.1-.8-.1-1.7.2-1.9,1.1"/>
    <path id="path2816" class="st2" d="M741.3,712.8c.6-.7,1.5-.5,2.2-1.1-.7-1.1-2.6,0-2.2,1.1"/>
    <path id="path2846" class="st2" d="M754.4,680.2c.2-.2.3-.5.5-.7-.8-.2-1,0-.5.7"/>
    <path id="path2848" class="st2" d="M755,682.3c1.1-.5.5-1.5,0-2.2-1.1.5-.5,1.6,0,2.2"/>
    <path id="path2818" class="st2" d="M743.5,711.3c11.5-6.6,2.2-13.3,0,0"/>
    <path id="path2820" class="st2" d="M747.4,702.8c.7-.5,2.8-1.9,1.8-3-1,.5-1.5,1.9-1.8,3"/>
    <path id="path2822" class="st2" d="M747.4,709.1c1.1-.4,1.9-1.9,1.2-2.9,0,1.2-1.2,1.8-1.2,2.9"/>
    <path id="path2824" class="st2" d="M750.5,706.1c-.8.3-1.4,1-1.6,1.9.6-.1,2.5-2.1,1.6-1.9"/>
    <path id="path2826" class="st2" d="M749.5,703.3c.3-.7.5-1.5,1.3-1.8-1.1-1.1-1.6,1-1.3,1.8"/>
    <path id="path2828" class="st2" d="M749.3,706.9c3.7-3.4.5-4.4,0,0"/>
    <path id="path2830" class="st2" d="M749.8,703.3c.6-.2,1-.6.8-1.3-.5.2-.9.7-.8,1.3"/>
    <path id="path2832" class="st2" d="M751.4,701c.5-.6,1.2-.9,1.8-1.5.9-2.4-5.1,1.1-1.8,1.5"/>
    <path id="path2834" class="st2" d="M750.5,703.6c.6-.3,1.9-.8,1.4-1.7-.9,0-1.1,1.1-1.4,1.7"/>
    <path id="path2836" class="st2" d="M750.8,705.9c.4-.2.6-.5.8-.9-.6,0-.9.3-.8.9"/>
    <path id="path2838" class="st2" d="M751,698.5c.7,1.6,2.4-1.9,0,0"/>
    <path id="Brazil_Marajo" class="st2" d="M752,711.3c3.5,6.1,8.9,1.2,13.7.6,1.9-2.2,6.3-9.7,3.2-11.4-5.1,0-11.6-2.2-15.9.4,0,2.5-3.1,8,1.3,6.6-1.9,1.6-2.7.1-2.3,3.7"/>
    <path id="path2842" class="st2" d="M753.6,698.5c1,.7.9-.3.6-1-.7-1.5-1.5,0-.6,1"/>
    <path id="path2844" class="st2" d="M754.6,697.1c.7-1.1,1.3-2.3.3-3.5-.4.9-1.3,3.2-.3,3.5"/>
    <path id="path2850" class="st2" d="M757.4,698.5c.7,1.4,2.1-.8,2.7-1.4,2-3.5-10.1.9-2.7,1.4"/>
    <path id="path2852" class="st2" d="M756,695.6c.4-.3,2.3-1.8,1.6-2.4-1.2-1-2.5,1.5-1.6,2.4"/>
    <path id="path2854" class="st2" d="M756.1,696.6c.5-.2.8-.5,1.2-.9-.6,0-1,.3-1.2.9"/>
    <path id="path2856" class="st2" d="M756.1,692.1c.7,0,1.6-.2,1.5-1.1-.8-.2-1.8.2-1.5,1.1"/>
    <path id="path2858" class="st2" d="M757.8,690.5c.5-.3.5-.6.2-1.1-.4.3-.5.6-.2,1.1"/>
    <path id="path2860" class="st2" d="M759.8,698.5c-1,1.6,1.5,1.3,2.3,1,1.4-.5-1.1-2.2-2.3-1"/>
    <path id="path2862" class="st2" d="M765.9,714.2c.2-.6.4-1.3.4-1.9-.9.3-1.4,1.3-.4,1.9"/>
    <path id="path2864" class="st2" d="M769.8,708.6c1.9,1.9.4-2.3,0,0"/>
    <path id="path2866" class="st2" d="M775.5,704.5c.8.3,0-.8,0-.8v.8"/>
    <path id="path2872" class="st2" d="M784.6,707.4c.4-.1.6-.4.6-.8-.8-.2-1,0-.6.8"/>
    <path id="path2874" class="st2" d="M796.3,710.7c.6-.2.9-.7.6-1.2-.5,1.4-.6,0-.6,1.2"/>
    <path id="path2876" class="st2" d="M798,713c.3,0,.5-.2.8-.3-.7-.5-1-.4-.8.3"/>
    <path id="path2878" class="st2" d="M799.6,725.1c.5-.9.8-1.9.8-3-1.1.5-.7,2-.8,3"/>
    <path id="path2882" class="st2" d="M806.3,718.9c.2-.2.4-.5.7-.7-.8,0-1,.2-.7.7"/>
    <path id="path2868" class="st2" d="M781.7,926.5c.9,1.4,1.3-.7.6-1.4-.4.4-.6.9-.6,1.4"/>
    <path id="path2870" class="st2" d="M784.2,939.3c.7-.9,1.2-2.7.4-3.7-1.1.6-.5,2.7-.4,3.7"/>
    <path id="path2880" class="st2" d="M804.9,906c.1-.7-.4-1.1-.1-1.8-1.8.2-1.5,1.6.1,1.8"/>
    <path id="path2884" class="st2" d="M811.2,899.5c.6,0,1.1-.5,1.4-.9-.7-.5-1.8,0-1.4.9"/>
    <path id="path2888" class="st2" d="M846.6,812.2c.5-.5,1.9-1.4.8-2.2.2.9-.8,1.3-.8,2.2"/>
  </g>
  <g id="do">
    <path id="Dominican_Republic_Hispaniola" class="st1" d="M600.7,542.5c1-1.7,0-3.6-1.2-4.9,3.9-1.2,2.6-6.7,3-10.3,3.7-2.3,8.6,0,12.5,1.3,2.4,0,.7,4.5,4.3,2.9.7-.2,1.6-.4,2.2,0-11.4,3.2,12.7,1.6,3.1,8.7-10-4.5-13.1,4.5-15.3-1.2-4.5,1.1-5.7,11.4-8.6,3.5"/>
    <path id="Dominican_Republic_Isla_Saona" class="st2" d="M624.8,541.9c-.5,0-1-.2-1.4-.5.5-.1,1.3-.1,1.4.5"/>
  </g>
  <g id="cu">
    <path id="Cuba_island" class="st2" d="M506.6,509.2c3.3-1.7,4.5-.3,4.5-4.2,8-8.3,21.5-6.9,29.2-6.1,1,1.7,4,1.9,5.7,1.5-.5,1.7,3.4,4.9,6,4.4,3.4.3,12.9,8.9,9.4,4.7,4.4,3,2.2,2.4,7,5.7-.1-2,2.7.3,3.2.7,1.2,0,5.3-.2,2.5,1.7-1.2,2.1,3.5,1.2,6.5,2.6,7.1,4.9,2.7,4.5-3.3,5.9-3.1-.3-13.6,0-19.5.8-.4-3,6.5-3.1,4.8-5.8-4-4.5-8.3,1.8-10.1-9.5-4.3.3-10.6.2-12.5-4.7-.2,1.6-5.1,1.1-5.2-1-.3,2.3-5.3.4-7.1-1,1-.8,5.8-.2,2.9-2.4-9.4-2.9-18.4,9.6-24.2,6.6"/>
    <path id="path3586" class="st2" d="M542.8,500c-1.7,0,.3-1,0,0"/>
    <path id="path3588" class="st2" d="M554,521.1c-.3-.2-.5-.5-.8-.7.7,0,.6.2.8.7"/>
    <path id="path3590" class="st2" d="M555.6,504.6c-4.4-1.5,4-1.1,0,0"/>
    <path id="path3592" class="st2" d="M558.4,505.9c-.6-.4-1.6-.4-1.8-1.3,1.1-.7,1.4.5,1.8,1.3"/>
    <path id="path3594" class="st2" d="M559.4,507.4c-.8-.1-1.3-1-.8-1.7.2.4,1.1,1.1.8,1.7"/>
    <path id="path3596" class="st2" d="M560.4,509c-.5-.4-1-.8-1.4-1.2,1-.9,3.1,0,1.4,1.2"/>
  </g>
  <g id="ve">
    <path id="Venezuela_mainland" class="st1" d="M581.8,619.2c5.1-8.4,5.6-20.7,17-23.5-6.4,3.5-4.5,4.9-2.9,10.6-1.2,4.7-6.3,7.4-1.7,12.1,0,4.6,5.9.2,5.4-2.6.3-4-3.6-6.6-3.3-10.6,2.5-3.1,11.5-3.7,11.4-6.7,4.2,3.3,3.4-2.7-.6-.3-1.1-5.4,3.9-7.3,3.5-.5,1.8,3.1,8.8,0,10.4,5.1-1.3,10.9,13-.7,23.6,8.7,4.5.6,6.6-4.4,11.3-3.5-1.3-.7-7-1.1-2.5-1.4,3.3-.4,21.9-1.6,13.2.6-6.1,1-5.2-.7-2.7,3.6,0,1.3-2.2.4-2.8.4,1.7,3.3,3.8-3.6,4.3.6.3,2.2,1.7,3.6,1.4.5,2,5.3-1-.1,1.7.9,0,0-2.5-1.3-1.1-1.2,3.8,1.4,1.1,2.7,4.4,1.8,6.3,2.9,6.3,2.1,2.6,9.4-.3,2-2.8.1-3.8,1,3.8,2.4,5.3,0,9.6,0,9,.3.2,5.8-2.3,8.5-1.5,4,3.7,3.5,2.2,5.3-4.2,2.7-6.7,1.5-6.6,7.2-5.3,3.5,7.4,7.9,3,11.9-2.4,2.7-5.5,3.1-8.3,4.9-2.2,1.8-8.2-.7-7.4,3.8-.5,5.1-3.6-3-6.1-1-1.5-.8-3.6.8-4.1-1.1-1.1-2-3.7-.2-5-2.3-.2,3.9,5.1,5.7,4.2,10.4,2,5.7.4,5,5.9,6.4-2.3,3.7-5.7,4.1-7.5,8.4-2.7-1.8-7,4.5-9.2,6.3,0-2.4-.2-4-2.8-2.1-10.7,4.7-6.3-16.6-14.8-16.4,7.5-6.1-1.4-11.9.7-20.4,2.3-6.1,6.1-11.6-3.5-9-11.6,3.4-8.6-6.2-17.8-7.8-3,.9-7.7,1.4-10.4-.2-1.3-2.7-4.7-4.6-2.1-7.9-.2-4.3-2.3-12.5-6.8-9.9"/>
    <path id="path3412" class="st2" d="M673.9,625.2c-.7-.1-1.5-.3-2.2-.6.7-.4,2.1-.5,2.2.6"/>
    <path id="path3414" class="st2" d="M674.6,623.4c.4-.7,1.1-1.5,2-1.1-.3,1-1.3.8-2,1.1"/>
    <path id="path3416" class="st2" d="M674.8,625c-1-.9.1-.6.9-.9,0,.6-.4.9-.9.9"/>
    <path id="path3418" class="st2" d="M675.4,623.8c-2-.6,2-.8,0,0"/>
    <path id="path3420" class="st2" d="M676.4,624c-.1-.5.1-.6.8-.3-.3,0-.5.2-.8.3"/>
    <path id="path3422" class="st2" d="M676.6,621.6c.3-.5.2-.2,0,0-1.2.3-.3-1,0,0"/>
    <path id="path3424" class="st2" d="M677,619.8c-.7-.2-.7-.5.2-.7,0,.2-.1.5-.2.7"/>
    <path id="path3426" class="st2" d="M677.1,620.1c-.7.3-1.2,1-1.9,1.4.3-.8,1-1.4,1.9-1.4"/>
    <path id="path3428" class="st2" d="M677.2,619.7c.1-.3.4-.5.7-.6-.2.2-.5.4-.7.6"/>
    <path id="path3598" class="st2" d="M644.3,604.4c-.9-.1-.7-.4,0-.8.3.3.3.6,0,.8"/>
    <path id="path3600" class="st2" d="M653.6,604.6c-2-.7-3.3-3-.3-1.2,2.1-2.3,3.4,0,.3,1.2"/>
    <path id="path3602" class="st2" d="M663.1,607.9c.4.5.7,1,.9,1.5-.5-.3-.9-.9-.9-1.5"/>
  </g>
  <path id="co" class="st1" d="M536.9,684.8c-2.2-.7,1.5-3,2.7-1.7-1.4-5.1,1.2-5.9,5.2-7.1,3-1.1,2.6-7.1,6.3-9.3-1-.8.2-1,.5-1.8-.7,0-1.6.6-1.9-.4,2.5-2-.6,0-.8-1,2.5-4-1.2-11,1.7-15.8-.2-.9-2.3-3-.9-3.5,2.7-3.1-5-7.1-2.3-10,.5-1.4.5-3.5,1.5-.9,6.2-1.6-1.2-14.6,4.4-6.5,2.4,5.7,2.2,2,1.5-2.1,2.5-2.5,6.4-7,10-8.2-.6-3.8,1.1-5.6,1.3-8.6,1.5-2.1,3.5-4.2,5.5-5.5,2.1.7,4.5,1,1.7,2.2,2.5,3,2.6-6.6,7.3-3.7,4.5,1.7,13.6-9.5,13.3-7.5,8-6.2,8.3,3.1-.7,5.2-6.6,5.5-7,13.6-11.5,20.7,7.7-2.9,5.5,10.7,7.2,15.2,2.9,6.5,9.8,1.1,14.8,4,3.3-.7,4,3.8,5.7,5.8,3.4,4.5,15.3-3.8,16.2,2.4-10.3,13.3,5.2,18.8-3.9,27.8,5-.4,7.9,11.5,6.5,13.8-2.3.7.2-7.9-3.8-8-1,0-3.7,5.1-4.4,2.3-.3-1-1.6-1.5-1.5,0-1.8,3-8.6,0-11.9.9-3.5,5.3,1.9,4.9,4.7,7.3,1.1,4.4-12.5-1.3-5.3,10.9,6.2,4.7,2.3,36.2-2.4,30.7-4.8-.4-3.2-2.7-1.3-6.1,5.2-4.3-3-9.9-6.7-7.3-4.1-2.2-8.8,3.3-14,.1-.2-2.9-.5-4-3.1-5.5-.3-2.3-1.3-3.6-3.4-4.5-4.1-2.2-4.2-8.3-9.2-9.8-3.3,2.2-7.7-6-9.8-3.2-1.7,1.5-8.3-.4-8.8-3.1-3.5-2.5-8.4-3.6-10.7-8.1"/>
  <path id="gt" class="st1" d="M442.4,572.7c3.7-24.5,20-5.6,14.3-17.4-1.2-3.9-8.5-5.1-1.9-6.6.7-8.3,19.5-6.1,13.4,4-3.5,9.9,1.3,8,5.8,9.9-12.1,7.2-12.9,26.5-31.7,10.2"/>
  <path id="sr" class="st1" d="M699.4,667.7c-3.1-3.2-4.3-14.7,2.7-12.6,2.5-1.2,0-8.6,5.1-8.3,1.1.2,7.1.7,6.5,2.6.8-1.5-.4-2.6,2-2.6,1.9.8,15.4-1.8,11.5,4.7-7.7,7.9,5.3,19.7-4,27-2.6-1.4-4.1-3.1-7.3-1.3-3.3-.2-5.3,0-3.1,3.8-3.7,4.8-8.8-4.5-9.8-8,.8-4-2.9-2.7-3.7-5.5"/>
  <g id="pa">
    <path id="Panama_mainland" class="st1" d="M508.3,627c1.1-1.7.6-4,1.8-5.3,1.3-.6-1.1-1.4-1.1-1.9-.7-4.9,4.7-5.2,4.5-.9.4,1.8,5.4,3.8,3.3.9,6.1,9,18.2-8.7,21.9-2.9,8.1-1.3,18.1,11,10.2,16.5-1.1-3-1,.7-2.3,2.6-3.4-2.8-4.5-6.4-2.1-9.3,4.9.6,2,2.7.7-2.1.2,1.8-1,1.2-2.1.1.6,3.9-2.8-4.9-5.7-4-4.9-1-4.6,6.1-9,6.2-4.7,1,6.7,7.7-.6,7.9-6.1,5.3-3-4.3-6.4-4.5,0,6.6-4.4-3.9-7.3-3.1-4.6-2.9-5.2,3.2-5.9-.2"/>
    <path id="path4792" class="st2" d="M512.6,627.2c0,.5.2.5.5,0-.2-.1-.4-.1-.5,0"/>
    <path id="path4794" class="st2" d="M517.4,632.4c-2.8,2,1.5,3.9,0,0"/>
    <path id="path4796" class="st2" d="M521.1,633.9c.6-.2,1-.5,1.4-.9-.6.2-1,.5-1.4.9"/>
    <path id="path4802" class="st2" d="M539.6,625.4c-.7.1-.8,1-.6,1.5,1,.1.8-.9.6-1.5"/>
  </g>
  <g id="ar">
    <path id="path4518" class="st1" d="M628.3,951.8c2.6-5,2-16.1,7.3-18.7,3-1.4,0-3.2-1.1-4.7,1.4-3.5-3.8-10.2-.7-12.3-6-7.8,10-7.1,7.3-15.9-.4-4.3-2.3-5.3,2.6-9.5,3.4-2.3,2.1-4.9,6.3-1,6-.3,9.4.7,11.5,6.8-.4-12.8,13.9-7.6,17.2.7,8.1,8.1,18.9,10.8,28.6,16.6,9.5,2.3,6.2,7.2,3.9,14-4.3,9.7.7,6.2,10.5,8,6.4,2.7,3.9-2.7,8.7-.2,3.3-4.3,8.4-7.7,6.2-14.5,4.9-6.8,11.1,9.3,6.6,12.6-11.1,5.8-14.8,14.7-21.4,25.1-1.5,1.8-3,4-1.3,6.3-.4,2.4-.9,4.9-.2,6.9-1,3.5-.6,7.8,1.1,11.1,0,2.2-2.8,3.7-1.4,6.8,1,11.5,12.8,8.2,13,17-1.9,6.1,6.7,4.5,6.6,9.2-2.1,31.6-45,9.8-31.8,25.2.3,2.1-2.7,5.3.5,7.4,3.9,9.3-15.4,3.8-17.5,1.9-2.5,3,2.3,9.4,4,12.2,1,.4,3.6.6,2.8,2.2,2.5.6,6-.5,1.4-1.6,1.2.2,1.9-1.1,3-1.1,3,.5,5.4,7.7.4,6.7-1.7-1-2.4-4.5-5.1-2.7-3.2,2.1,2.1,3.9,3.9,3.4-1,2.1-3.9,1.7-4.2,4.5-1.3,2.8,1.7,5,1.8,7.8-.6,2.5-2.9,2-.2,4.8-.2,1-7.4-.4-5.8,2.2-12,4.6,2.4,17.5,10.7,16.2,2.6,1.6,3,6.8-1.1,6.3,2.3-.6,4.4-.5,3.7,1.9-13.1,6.8-3,12.8-7.8,17-2.4.8-3.1-2.8-5.1-3.2,2.3.9,1.5,2.6-.8,2.4,10.3.2-4.7,3,5.5,12.1.8,1.6-2.5.7-3.3,1.3,2.7.2,4.6-.3,6.2,1.9,11.8,7.7-13.7-.9-20,1-5.6-2.4-4.6-8.8-9.1-11.3-2.7,0-4.6,2.2-5.9-1.5-4.6-3.6-7.5-10.1-2.1-13,1.2-2-2.2-3.5.6-4.9-.2-2.3-3.6-2.5-3.1-5.1-.4-3.1,2.6-4,.7-5.9.2-2.7,1-5.6-2.5-7.4,3.3-1.7-3.7-4,.7-6.2,1.1-5-12.6-4-1-5.7,0-5.8-6.1,1.2-6.9-8.7.9-1-3.6-1.9-2-3.3.9-.8-.2-1.4-1-1.6-3.1-.4-4-6.2-3.8-8.2,2.5-.9-3.4-9.1-3.9-12.2,1.2-5.5-4.4-13.4,1.2-17.6-1.3-6.4-10.5-15.3-4.2-21.5,2.7-1.7-.3-6.4-1.9-8,2.4-1.6-.6-7.3,2.3-8.5,1.2.2-.5-2.9-.6-3.1-.4-2.7.2-5.6-2.6-5.9-1.2-7-6.2-10.1-7.7-16.8.5-2.3,2-5.6,1-8.1,4.9.8-2-7.6-.8-9.5"/>
    <path id="path4200" class="st2" d="M707,1036.5c.1-.5-.1-.6-.7-.2.2,0,.5.2.7.2"/>
    <path id="path4202" class="st2" d="M708.3,1038c0-.8-.8-1.3-1.5-.9.5.4,1,.7,1.5.9"/>
  </g>
  <g id="cr">
    <path id="Costa_Rica_mainland" class="st1" d="M487.5,608.9c3-2.5-1.3-9.9,5.8-5.9,5.4-.8,10,5,11.2,1.3-.1,4.6,7.4,9.9,6.8,12.1-2.1-1.9-1.6,1.2-2.2,3,0,1.1,2.7,1.5.8,2.5-1.5.8.5,2.5-.8,3.6-1.2,7.7-.4-2.5-4.5-2.3,2.8,3-.1,3.8-1.7.9,2.8-3.7-1.5-6.6-4.8-7.7-1.5-.5-6.6-9.4-5.8-5.1,6.7,6.1-6.3,2.9-4.8-2.4"/>
    <path id="Costa_Rica_Cocos_Island" class="st2" d="M480.6,651.8c.3,0,.3.5,0,.5-.3,0-.3-.5,0-.5Z"/>
  </g>
  <path id="py" class="st1" d="M673.4,891c2.8-7.2-1.1-18.2,6-22.8,8.5-1.5,21-6.6,25.7,3.7,6.4,12.1-1.8,18.5,8.7,19.5,18.9-5.6,8.2,19.4,21,13.4,6.9,2.8-.7,15.2,2.8,21.8-.4,2.1-2.6,4.9-4.6,5.4-1.5.4-.8,4.3-2.9,3.6-2-1.7-3-.3-3.9,1.6-16.6-5.6-21.2,4.9-12.4-17.1,1.6-5.6-8.3-5.7-11.4-8.4-10.5-6.1-22.1-10.3-29-20.7"/>
  <g id="ht">
    <path id="Haiti_Hispaniola" class="st1" d="M583.6,537.3c3.9.5,6.5,2.8,11.1.9,5.3,0-.8-2.7-.5-5.2.4-2.2.8-3.7-2.1-4.2-6.3-1.1,3.2-3.9,5.6-1.6,9.6-.4,1.7,10,2.8,15.3-3.2-2.4-11.7-2.4-15-.9-1.9,2-8.1-5.3-2-4.3"/>
    <path id="path5514" class="st2" d="M586.9,542.4c-.3,0-.5-.1-.8-.2.6-.2.4,0,.8.2"/>
    <path id="path5516" class="st2" d="M593.4,536.8c-.2-.1-4.4-1.9-2.9-2.2.9-.2,3.7.9,2.9,2.2"/>
    <path id="path5518" class="st2" d="M595.3,525.5c-2.3-.9,3.1,0,0,0"/>
  </g>
  <path id="Canada_mainland" class="st1" d="M654.2,95.7c-3.7.5-1.3,1.7.8.9-1.8.3-12.6,2.6-6.8,2.6-2.5,2.6-5.6-.6-8.2,2.5-8.3,5.2,4.4,1.9-6.1,5.8-4.9,4.3,6.7,6.9,10.5,5.8.6,2.3-6.2,2.8-.6.8-4.5-.3-6.2,2.6-9.7,4.6,1.2,1.1,7-1.5,3.4-.4,3-3.2,3.8.1.3,1.4,1.7,1.8-13.8,3.6-16.8,6.9.7,2.5-1.9,5-4.4,5.9-5.9-1.9-.8,5.7-4.6-.8,7.1,1.5,5-.1,6.8-2.1-12.8,2.4,13.3-11.2-1.5-5.3,4.8-3.1.4-.2-1.1-3.3-2.8-1.5-4.6,2.5-7.8.7,1.1,3.4-.5.4-.8,2.5-.5,2.9,6.5-2.2,5.1,2.5-3.3,2.7-8.2-5.7-6.6-.7-6.9-1.1-22.4,3.4-25.8-2.3-4.4,1-11.6-1.3-8.3-3.6,1.1-6.6-25.1,2.7-19,2.7-2.7,1,5.7.7,3-.3,5.3,0,9.6-1.8,15.2-2.7-10.4,6.2-20.1.5-21.4,13.1-.8-1.9-2,1.7-2.5-.3,2,0,1.3-1.4-.1-.5-1.2,1.4-2.4,2.6-1.2,4.5-1.4-.2-.4-3.9-1.7-2.2.6-.7-.2-1.1-.8-1.3,3.4-.5-1-.9.1-2.2.8.8,3,1.2,3.8.2.2-2.7-1.3-4.3-3.5-1.8,1.6-9.4-21.6,1.4-33.6-3.9,5.4-2,21-4.3,6.6-8.1-4.9,2.6-11.2-.7-17.3-2.4-7.1-7.5-34.3,3.2-22.2-2.5-2.8-.3-.3-2,1.2-2.7-3.1.2-7.3.4-1.5.3-8.6.3-6.4,7.2-12.9,3.4-1.5-2.6,3.7-5.3-.2-7.4-5.3,1,1.3,2.6-5.6,3-9.1,4.9-10.2-.3-23.8,7,2-3.9,9.4-3.4,17.4-7.2-8.4-.2-22.2,4.3-34.8,6.8-3.3-.9-5.5,7.1-5.9,2.2-2.3.1-5-.9-4.3,1.8-3.4-2.7-10.5-.2-12.3-4.5-7.3-16.3-89.7,66.9-96.7,68.5,4.1,1.6,7.5-.7,11.6-.4-4.2,1.5-1.7,4.8-.8,8.1-2.9,6.5,6.7.2,10.2-1.1,1.7-1.7,11.6-4.6,7.1.9,1.5,3.1,2.2,6.8.9,10.9-.6,9.1-6.1,8.6,2.4,14.8,3,1.5-4.9,6.3-6.4,9.2,1.5-.7,2.9.3-1.7,1.5-2.5,2,.7,1.7-2.9,1.4-.7,2.1,1.6.6-.4,2.9,0-5.9-5.2,2.8.4,1-2.7.7-4.9,1.9-2.5,6.7,3.4-3.4,5-2.9,8.5-5.1-.1.9-1.6,1.1,0,1.4-2.7-.7-6,3.9-.7,3.1-1,0-2.1,0-2.8.8-2.6-4.8-1.6,2.6-3.3,3.8,3.2,1.5,2.1-.6-.5,2.6-4.1,3.1-1.4,2,.6,1.6-2.8,3.3,10-4.3,5.6,2.8.3-4.5-5-.4-6.9.6-1.9.5-3.7,2.1-3.6,4.2,1,0,6-4.7,3.3-1.8,9.8.3,2.9-.9-2,1.3-2.9,1.9-1.2,1.7,1.6,1.5-.2.1-6.5.7-4.8,1.8,0,2.6,4.4,2.8,7.1.6-1,2.2-2,1.2.9,1.5-2.3,3.3,3.4.6,5.3-1.6-2.3,4.9-7.5,2.4-7.9,4.6,3.5,1,7.5-3.5,4.3.3,3.7,1.1,5-2.1,7.5-3.9.2,1.2-6.5,5.6-4.1,4.3-1.5,2.3,3.5-1,4.1-.4-2.6-.2-3.3,2.9-5.1,4,.3,3.7,4.6.5,5.2-.4,4.4-3-1.9.8-.8,3,1.7.3-.8.3-1.2,1.4.9-2.2-1.3-1.5-.8-.3,1.4,2.7,3.9-.7,5.8-1.1-26.9,15.3,184,1.8,184.3,6.1,0-6.8,3.2-3,1.2,1.4.2,1.2,5.2.5,4.4,2,4.5-1.2,7.6-.8,9.1,2.3,1-1.6,3.1.9,3.6,1.6,3.8-.4,5.1-1.2,8.3-.2,9.7,1.2,10.3-3.4,15.3-5.7,3.4-.8-1.2,2-1.5,2.9,3.5-1,3.6-3.5,5.7-4.7,21.3,3.6.2,10,16.9,8.7-3.2,2.1-.7,4.1-1.4,6.3-2.4,1.5-.9,1.9.3,3.1-2.8.9-.5.9-2.5,2.7.8.2,4.4-.3,2.3,1.3,4.6,2.5,18.6.8,15.1,3.5,7.7-.9,4.5,1,7.2,2.8-.6,1-.2,3.6,1.4,1.8-.7,1.8-1.3,4.7.8,4.5-5,.8-1.4.9-4.4,3.3-3.5-1.6-6.1-1.8-4.4-3.7-5.1-6.7,0,1-4.8,4.1-4.9,5.9-9,11.9-15.3,16,2.9,2.6-1.3,1.7-3,1.9-5.8,5.8,8.4.8,10.5-1.8,2-1.8,13.9.9,8.4-.5,27.2-8.1-5.4-1.9,14-10.6,5.2-1.8,10.9-.9,15.1-.7-1.7.4,1.8-2.7-4.1-1.5,7.1,0,14.3-4.5,22.8-7.8,5.2-.4,23.3,1.5,26.6-2.8,5,1.1,15.7-22,20.2-15.9,14.4-3.8.5,9.9,4.5,14.6-4.2,4.1,9.1,4.4,8.1,1.4,1.4-1,2.4-1.2.7.4,3.3.8,11.6-2.3,11.8-6.3,2,3.7.7,1.9-3.4,5.3,1.4,1.2,7.3-.8,10.4.4-1.5,1-7,0-6.2,3.1-.6,0-.2-1.8-1.4-.9,2.3-3.7-13.9,4-8.8,3-.8.4-2.1,1.8-2.4.5.3,1.2-9,6.6-3.4,7.5,0,5.2,5.6.4,8-1.1,4.3-2.7,5.5-4.8,8.6-6.4,0,4.6,12.6-3.7,17.7-4.1,2.4-.4,5.7-.7,1.5-2,1.7,0,1.2-2.2,0-2.3-1.7,1-2,.2-2.6-1.5-7.5,4.7-11.1-2.1-15.3-3.1-3.5-.8,2.7-8.9-3.8-7.3,12.8-9.4,1.7-3.2-2.5-7.6-10.6-2.3,13.9,1.5,15.3-5.9-2.6-13.4-36.2,3.5-46.5,13.2-16,8.6,10.9-10.1,15.9-14.5,5.2-3.2,6.5-2.4,13.2-5.6,2.2-3.5,6.8-6.5,9.9-5.8,16.8-3.4,29.4,3.9,43-1.9,7.6-3.7,11.7-9.3,22-8.4,7.5-3.4,16-9,6.7-9.5,3,0,6.1.4,3.1-1.7,2.3.1,2.7-1.1.5-2,8.2-.7-1.8-8.7-5.8-3.8-1.2-2.2,4-1.3,1.5-5.4-2.8-1-9.3-.1-3.1.5-4.5.2-24.2,9.9-16.3,5.3-.3-2.2-4.8-1-3.8-3.1,4.3,3.8,12.3-1,17.3-3.1-.9.2-8,2.6-8.2,1.3,6.4-.6,14.2-2.8,16.1-4.4-2.6-1.3-6.5-1.9-9.3-2.6,1.8-1.7-.3-1.6-2.1-.7,4.9-4.4-2.6,1.8-4.3,1.9,10.8-6.9-4.6-.7.6-3.9-1.6-.4-3.5,1.2-4.6,2,3.6-3.9,4.2-1.3,3.8-5.2,1.4-1.9.3-1.1-1.1,0,1.3-2.1.4-.7-1.2-.8,2.8-1.4-3.1-.4-.7-1.8-.5,0-2.6-.3-.7-.8-1.8.8,0-.9.2-1.3-1.2.4-3,.4-3.9-.6.2,0,3.6.4,1.5,0,2.2.2-1.3-1.1-1.5-1.3.9-.6,2.4.2,3-.9-1.7-.4-4.3-.1-1.3-.4-3.5-.8-3-2.2.2-1.6-5.8-.2,2.1,2.7,1.3.5-2.4.3,5.6-1.7,3.5-3.1-2.8-.9-.7-2.1-4.6-2.7,1,.3,5.1-.7,3.5-2.5,2.1-2.1-2.2-1-2.9-1.3,5.1-1.6-.6-1.8-3.7-.3,6.5-2.2,8.2-5.3.1-2.9.5,0,2.3-1.1.6-.9,2.2.6,8.1-3.5,2.6-3,3.3-1.4.3-2.9-3-.9,0-1.8,3.3-.3,4.2-2.5-1.6.5-.5-.3-3-1,5.4-.8-2.4-1.7,1.6-4.7-4.2,1.5.2-1.1-4,0,.6-.2,4.2-1.7,2.3-1.3,1.8-.8-.4-.8-.8-.6,3.3-1.5-1.9-.3-2.6,1.5-1.4,2.5-7.2,1.7-3,5.3-2.8-1.8-1.7.5-3.3.3-.3,1.7-3.7,1,0,2.5-.4-.6-6,.8-3.5,1.5-3.1-.6-.7,3.4-3.9,4.1,6-8.4-9.9.8-12,3.2,2.4-4.3,2.6-4-1.5-1.5,6.6-6.2-.8-1.1-3.8,1-13.2,2.8,4.5.9,4.5-4.8-.6-6.8-9.3,1.8-10.9-1.5,2.4,1,4.1-4.1,3.8-.1,2.7-1,1.8-4.1,4.2-3.4-4.1-2.8,0-1.1.3-5.4-8.1-2.1-7.3,0-.3-1.1,2.7.3,2.1-4.3,4.4-5.3,1.7.4,3.5-3.5,1-2.1-.7.9-2,1.6-3.3.9,2.8-2.6-6.4-.9-6.3-2.7-2.7-.2-1.2-2.5,1.1-2.7-.5-1.7-1.8-.7-3-.4,1.7-1.7-1-2.7-3.1-1.7,4.8-1.5-1.9-5.5-4.7-4.2-5.2,2.4-6.8-.1-11.8,1.7,3.6-4.2-21.5-3.7-13.1,4.8-.9.5-9.8,6.5-6.1,5.6-1.7.8,1.2.1,1.6.1-.7.6-1.6.9-2,1.7,2.6.8,0,.2-.8,1.4.8,2.1-1,2.6,1,3.2-4.7,3.3-6.8,5.1-12.1,8.4-2,.7-1.4,1.3-2.6,2.7,15.1,9.3-3.7,25-14.7,28.1-9.5,3.3-14.6,2.7-11.1,10.9-2.8.6-1.3,3.2-4,6.6,1.4,1.2,0,1.8-.4,3.8,2,0-.8,2.4.3,2.5-2.1,1.2-7.4,4.3-4.9,6.2-.9,0-2.8,1.7-2.3,2.7-.6-.2-.1-1.5-.1-2,0-1.3-1.7-.8-.7-1.9-4.2.2-5.1,4.3-4.3,7.6-.3-6.8-5.9-4.2-9.8-2.5,7.3-1.4,7-10.4-.5-9.6,2-1.1,4.3-1.5,2.3-4.1-4.7-3.5,16.2-23.6,4.8-20-.7-2.2-12.4-2.4-16.4,1,8-4.2-4.3-8.2-8.7-8.3-.9-14.5-26.6-7.7-28.2-7.4,5.2-.3,10-14,6.5-14.8-4.7-.3-5,.4-7.1-2.4,3.5-1.6,8.5-8,10-11.4,3.1.5,7.5-5.9,10.6-6.5-1.1-2,8.4-4,7.7-5.6.9.6,5.1-1.9,3-2.3,3.4,1.6,2.7-2.5,7.4-1.7,4,.2-2.8-1.8.6-2.2,4.6.2,11.4.3,12.2-4.3-4.6-3.2-10.4-2.4-13.9-4.6,1.4-1.3,6.2,2.2,10.6,2,6,2.9,10.7-.5,13.7-3.3,2.5,4.7,15.5-2.4,22.1-7.1-.6-3.8-9.9,1-11.4-3.5-1.9-3.3-5.8-2.4-8.9-2.5,1.2-1.5,4.5,0,6-.1,4.3.3,6.7,1.2,11.2,4.3,5.7-.1,10.3-4.1,15.4-6.2-1.4-1.5-4.1-.6-2.4-2.9,1.2.4,4.5.4,5.7,0,2.3-1.3,2.2,5.3,6.5,1.2.7,2.3,5.4,1,2.7-1.6.7-.6.2-1.5-1.1-1.7,2.5.3-1.7-.7.8-.6-7.2.2,2-2,1.6.5-2.4.8,1.4,1,2-.3-5.2,5.6,4.2,3.5,7.7,1.3,20.1-5.1,2.9-11.5,11.9-13.4,3,1.2,10.3-3.5,2.7-2.7,1.4-.4,5.4-.5,5.7-2.3-1.6-.3-2.9-.9-4.5-.3,1.8-.5-1-1.4.9-1.2-5.6-1.7-4,.2.2-1.7-4.9-.1-14.5-4-16.7.5-2.2,1.1-2.8,3,.9,3.9-1.4-.8-5.4,1.9-2.5,1.5-8.9,1.3-15.7,11.5-24.8,12.4,1.8-2.9-2.4-8.1,2.7-8.3,9.8-1.7-.7-12.2-5.1-3.8-2.6,1.2-4.8,5.1-7,3.2.6-1.3,5.5-4.3,1.5-7,4.2.4,8.8-2.6.3-1.7,5.4-1.4-4.1,0-6.1-1-1,1,9.6-4.1,4.1-2.7,2.1-2.2,5.8.8,6.2-2.2-3.3.9-.3-2.5-3.5-3.4,5.2-1.4,2.9-8.7-1.6-6,.6-1.3,2.2-2.2-.9-2.3ZM432.1,112c.2,0,.6-.2.7-.2-.9,0-.9.1-.7.2ZM478,131.9c13.3.4-15.3,5.1-3.7,4.8-2.5.8,2.8.1,3.4.4,3.9.5,9.6-3.5,10.9-2.3-3,1.3-3.2,3.8-9.7,5.6,1.1,1.1,3.5-.4.8.6,1.7,2.7-12-1.2-10,.5,2,0-22.1,10.5-15.9,5.7,21.7-9.4-3.5,2.1-11.1-1.3,2.6-1.2,15.7-4.1,11-6.2,22.6,0-5.5-4.4-10.5-.2-4.9-3.4,28.5-5.3,34.8-7.8ZM502.3,163.3c18,3.4-2.7-2.1-11.6,4.4,4-1.8,9.2-3.7,13.5-2.8-6.3-.7,4.1,1.7-7,1.6,2.5.6,2.3-.5,0,.7,7.5-1.5.8.2,2.3.4-14.5.3-29.7,16.1-49,10.6-2.2.7-2.5-1-3.7-2.1,5.4,1.9,10.9.2,15.1-2.9,2.9-.8,10-.5,6.1-4.5,2.9-1.7,0-1.6-.8-3.2,1.2-2,5.3,3.5,8.4,2,3.8,9.6,18.8-4.7,26.6-4.1ZM329,221.1c-.4.5-.8,1.7.3,1.5-2.7.4-1.9.5-.3-1.5ZM515.7,235.4c9.7-.8,2.8,9.4,2.1,15.1.3,2.2-1,4.2,0,6.6-.4,1.5-4,3.4-3.1,5.3-2.2-1.9-3.5,4.4-4.7,1,3.9-8.7,4.9-3.5,6.7-9.9-.7-1.2-2.9,1.9-3.7,1.5.4-1.7,2.8-2.4,1.8-4.4-1.8.7-1.1.5-.5-.8-2.7.7-4.1,3.9-3.7-1.3-1.3-3-1.6-5.5,2.5-6.2-7.5.6,0-6,2.8-6.9ZM323.7,239c.4.2.5.6-.1,1.5-.3-.5-.3-1,.1-1.5ZM326.7,243.8c0,1.1-.8,1.6-1.7,2,.8-.5,1.4-1.2,1.7-2ZM317.6,258c-1.6.7-3.3,1-5,.8,1.7,0,3.8-.5,5-.8ZM673.8,280.6c1.7-.2,3.7.9,5.1,1.6-2.7-.9-5.7-.9-5.1-1.6Z"/>
  <path id="sv" class="st1" d="M458,579.7c-.4-3.1,4.6-2,4.6-5.3,3.2-2.1,6.1,3.9,11.3,4.2,3.9-1.5,1,5.7-.4,6.1-5.4-1-10.2-1.3-15.6-5"/>
  <path id="gy" class="st1" d="M672,647.1c2.1-1.5.9-5.6,3.2-6.8.6-.6,7.9-2.1,4.4-3.7-7.4-4.2,8.2-7.9,3.8-11.9,4.4,3.4,3,.3,9.9,8.2,3.1,2.7.1,7.2-.5,10.4,2.3-8,9.4-.7,11.5,3.3-.2,13.4-3.2,4.7-6.8,10.6,0,4.2-.4,12,4.9,12.3,1.6,4.3,2.4,9.8,6.3,12.1-7.6-1.2-12.6,4.3-18.7,6.1-5.3-3-8.5-8.6-7.9-15.3,7.7-15.8-3.1-10,.2-16.2.2-5.6-9.2-1.4-10.3-9.3"/>
  <path id="uy" class="st1" d="M719.3,962.8c10.1-11.7,15.5,10.5,17,2.7,6.4,5.6,13.8,8.4,19.7,14.8,3.8,1.8-3.3,6.8,1.2,9.8-.2,17-27.6,9.9-35.6,1.8-3.1-4,1.9-7.3-.3-10.3-3-6,.3-13.2-2-18.8"/>
  <g id="hn">
    <path id="Honduras_mainland" class="st1" d="M464.3,573.7c2.9-8.1,10.8-14.1,20-11.5,7.5-.9,12-2.7,20-.4,7.1,6.1-3.3-1,2,4.9-1.6-2.5,2.8-.3,2.5.7,1.5-.4.1-1.3-.6-1.6,2.3.3,1.9,2.3,3.7,3-3.6.2-7.2,2.6-10.8,2.9-3.1-2.5-4.5,0-5.4,3-4.6,5.2-6.1,1.5-8.6,3.9-6.7,2.3-1.3,1.3-5.7,6.7-4.6,3.1-2.4-4.1-6.4-2.8.8-.7,2-4.5-.1-4.3-3.4.5-6.7-2.1-10.5-4.6"/>
    <path id="path6082" class="st2" d="M486.7,557.8c.9-.6,1.8-1,2.8-1.4-1,0-2.3.4-2.8,1.4"/>
  </g>
  <path id="ni" class="st1" d="M476.4,585.6c3.3,3,7.4-2.1,6.8-6,1.3-.9,3.2.9,4-1.2,1.8-2.1,2-.6,3.8.6.8-2.7,4.2-3.1,5.2-5.9,1.2-1.7,2-4.2,4.1-1.6,2.3.5,14.4-4.3,9.7-1.7.5,6.6-2.8,15.1-4,21.7,1.4-7.2-1.4-.4-.8,3.3-.4-2.6-.6,0-1,1.4,2.8.3-3,5-.4,7.2,2.3,3.9-4,1.5-5.1.2-1.9-.7-7.2-.6-8.5-1.9,7.8,3.1,6.7-2.1.9-7-5.4-3.3-1.9,5.6-.9,7-1.3,2.3-14.6-13.4-13.7-16.2"/>
  <g id="ec">
    <path id="Ecuador_mainland" class="st1" d="M521.6,717.5c4.4-1-1.9-9.9,1.7-11,3.8-2,1-2.9,2.6-5.8,3.3-2.1,2.3-5.9,2.4-8.9,9.8-4.9,8.8-5.9,19.7,1.1.3,2.6,8,5.4,8.5,2.4,3.2-.5,5,3.8,8.3,4.4-5.3-.7,1.4,3.7.6,7.4-3.5,10.9-20,15.3-24.2,24.3-5.9,17.5-3,7.5-13.2,4.8-2.2,2.5-2.3-1.7-1.8-3,3.2.2,1.9-4.1.5-5.4,6-1.2,2.5-8.2,4.1-11.8-1.6.8-.6,2.6-.8,3.9-.4,2.2-1.9.2-.3.1-3-1.8-1.2,5.4-7.9-2.4"/>
    <path id="path6790" class="st2" d="M530.1,721.4c.3-.5.2-1,0-1.4-.2.5-.1,1,0,1.4"/>
    <path id="path6602" class="st2" d="M528.9,721.6c-1.6-.1-2.8,2.8-1.2,3.1,0-1.3,2.9-2.6,1.2-3.1"/>
    <path id="Ecuador_Fernandina" class="st2" d="M440.8,702.8c.9-.2,1.1-1.7.1-1.9-1.7-.4-1.1,1.4-.1,1.9"/>
    <path id="Ecuador_Isabela" class="st2" d="M440,698.5c6.6,4.9-.7,6.7,2,8.8,7.4,2,1.9-10.7-2-8.8"/>
    <path id="Ecuador_Santiago" class="st2" d="M447.6,701.8c.8-1-.5-1.8-1.4-1.8-2.1,0,1.3,1.7,1.4,1.8"/>
    <path id="Ecuador_Marchena" class="st2" d="M448.6,696.3c.5-.7.4-.9-.4-.7.1.2.3.5.4.7"/>
    <path id="Ecuador_Santa_Cruz" class="st2" d="M449.7,705.3c1.5-.4,1.5-2.6-.3-2.4-1.8.3-1.4,2.4.3,2.4"/>
    <path id="Ecuador_Floreana" class="st2" d="M448.9,710.3c.2-.2.4-.5.6-.7-.9-.8-1.4.4-.6.7"/>
    <path id="Ecuador_San_Cristobal" class="st2" d="M455.8,706.9c.8,0,2.3-1.5,1.7-2.4-.8.1-2.4,1.5-1.7,2.4"/>
  </g>
  <g id="us">
    <path id="United_States_Alaska_mainland" class="st1" d="M114.5,226.2c-13.2,2.9,9.2-6,18.1-8-1.9.4,1.8.1,2.3,0-1.1.7-1.5.9-1.8,2.2.9.2,3.2-3,3.6-.5,6.8-7.4,23-9.4,32.8-14.5-1.2,1.5,1.5.6,1.9.1-4.1,1.8,5.1-7.2,7.4-5-3.8-1.1,1.6-3.2,3.5-3.7,16.2-7.6-12.8,5.3-4.2-2.7,6.6-1.4-3.2-.7-5.4,2.8-2.8,4.3-3.3-1.1-2.2-2.2-4.5.8-3.8-2.5-10.8.8-3.7,1.7-9.7,2.6-2.7-.2,5.1-4.1,7.7-11.3,17.4-14.9-6.1,1.1-13.6,8.8-22.2,6.9,3.7-5-4.9-5.1,7.3-8.5-1,1.5,3.3,1.1-1.9,2.7,1.4-.1,7.1-3.1,4.1-.2,1.2.6,5.4-1.5,2.4-1.9,5.7-1.3-3.7-.3-6.8-.5.3-1.1,2.5-1.4,3.4-1.5-2-.1-2.5-.7.3-2.1-2,.4-5.3,4.6-4.2.4-.2-.9,3.7-2,.7-1.7.8-.4,17.2-10.3,16.8-6.6,1-.5,2.6-2.3,5.3-2.9-6.8,3,.9-3.3,3.7-2-.7-3.1,10.4-1.8,2.8.2,10.8-4,19.4-1.1,28.4-8.5.7-.6,2.3-3.5,0-2.5.6-.3,9.5-1.7,7.3-3.7,0,.7-10.8,1.7-15.4,4.2,1.9-4.2-.6-.4-1.7-.9-4.2-3.2-12.8,2.7-15.9-1.9,2.6-.6.8-3.9,3.8-4.2-2.8,1,0,1.7,1.3.5,7-1.4-3.5-.4-4.5-3,.9-1.8,3.9-.2,10.1-2.7,6.7-1,33-9.6,19.4-1.2,5.1.4,6.5.8,11.6.4,4.6-1.4,9.7-2.8,1.7-1.9.7-.6,2.4-1,2.3-2.1-2.8-2.6,3.5-3.1,1.1-.7-3.4,1.6,8.7,3.9,8.9.5-2.6,0-4.9.4-7.5.6-2.1-.8,2.8-3.2,3.8-3.1-.4-1.6-2.8.1-2.8-.9-2.4,1.5-.9-.2.6-.6-2.1.7-4.3,1.6-6.6.7-2.7-1,4-5.2-1.2-7.3-9.4-5.2,37.2-10.6,45-16.6-2.2,3,19.8-4.8,10.1-.2-.3.7,8.9-2.2,4-1.1-1.2-2.5,25-3.7,26-5.7,5.8.8.8,3-2.2,2.7-1.2,2.3,1.9,0,3.8-.1,3-.9,4-2,5.6-.8-4.1,3,.2,1.7,3.1,1.2,6.8-1.6,8.5,2.4,2.8,2.3,4.5.8,6.8.6,10.9.9,14,0,24.9,3.9,37.1,2.7,25.1-1.1-82.4,71.5-79.4,74.2,3.1,1.7,14.9-2.9,9,1.5.2,2.8,3.5,6.6.5,9.3,7-1.1,12.2-6.5,19.1-6.8,2.9,1.4-1.7,2.7-.3,4.1,1.9.7-.2,2.5.8,3.7,3.8,7.2-8.1,16.8,1.3,19.8,5.2,3.9-6.9,10.9-11.5,12.9,1.6-2.5.8-.5-1.1,0,.5-2.4,4.7-3.5,6.6-4.5-4.2,2.5-6.9.3-1,.1-2.3.9,1.9-5.8,3.6-6.6-5.1,2.3-5.2.1-10,4.3-4,.9,3.1-3.4,4-4.4,2.2-1.8,3.7,1,1.2-1.7-3,4.9-2.7-3-.1-.3-.3-1.9-.6-2.5,1.5-3.5-2.2.8-2.1-1-.6-2-.7.5-1.7,0-1.6-.9-4.9,0,5.9-1.9.2-1.3,1.9-1.2.6-4.8,3.3-1.8-1.4-2.4.3-3.4,2.5-2.4-3-.9-5.7,1-1.4-2.2-5.4,2.8.2-3.2,2.7-3.2-7.8,3.8-7.7,1.2-4.5-4.6,5.3-7.4-3.6,4.3-6.4,6.9-1.2.2-.5-1.2-.2-1.6-7.9,2.5,4.2-5.5,0-3.4,1.2-1.9-1.7.7-2,.8-1.8-2-1.5-2.3-5.1-.6,2.8-1,3.9,1.3,2.1,1.7,1.6-.5,2,0,1.2,1.3-2.6,2.3-2.2-1-5.6,1.9-.7-2.1-3.2-2.6-2.6-5,0-4.5-9.4-3.3-.6-8.8,2.3-1-.9,2.5-.9,2.6,1.3-2.5,5.7-1.3,1.4-3.1-8.6,4.8-10.2,0-13.2.1-6.8-2.2-12,1.6-16.6-2.5,11.2-6.7-9.4,3.3-1.2-2.9-.4,0-3.6.6-1.6-.2-4.5.7,2-.6-3.8-.1,2.2-1.6,6.2-.9,1.3-1.1.5-1.5,7.3-3.3.3-1.4-3.5.9-6.4,1.7-3.1-1-4.3,4-6.4,1.5-.1-.9-7.5,2.9-3.5,1.4-9.9,3.7,2-.2-1,.6-1.4.9,4-1,2.8.9-1.9,1.7,1.6-.3,2.9-.5,4.5-.9,1.1,1.5-8.1,3.4-3.7,2.6-.7.9-.7,1.2-3.2,2-12.8.2-10.9,3.4-25,6-8.6,1.2,3.4-3.3,6.4-4-11.2,2.5,1.6-3.7,5-5.5,4.4-5,11.8-4.6,17.6-3.2-1-1.2-5.1-1.6-1.9-3.2,13-5.1-1.7,2-2.7-.7-18.6,5.7-26.4,12-40.2,15.8,1.3.6-7.5,2.2,0,2.7,1.8,3-14.5,5.8-10.3,5.7-11.1,4-22.2,7.4-32.7,12.3-5,.7-8.5,2.1-14.1,4.2,2.6-1.1,2.7.8,0,1.2-3.9,3.1,2.4-3.1-2.6.9-10.4,3.6-8,.2-16.5,4.3.9-1.5-.5-.3-.8,0-3,.9-9.9,1-2.7-.3-3.4-2.5-7.8,3.8-10.8,3.6-2,1.3-1.4.1-.8-1.5-1.5-.3-1.5,2.6-3.1,2.2M179.5,201.6c-2.6,4.7,10.2.2,0,0M197.6,191.3c17.8-.6,16.9-7.7,0,0"/>
    <path id="United_States_lower_48" class="st1" d="M271.8,367.2c-2-4.7-.8-8.4,1.2-13.1-3.3-7.2,4-8.4,6.6-14.3,2.3-14.3,9.7-16.2,16.3-26.3,4.5-4.1,6.1-10.6,10.8-13.9,2.1.2,5.6,1.1,2.3-.5-4.5.7-1.3-4-2.5-1.2,4.3-2.4-.5-3.9,4.5-4.8-3.7.7.7-10.1,2.8-11.9,9.2,4.3,16.6.2,4.3,8.2,3.6.7-1.3-.5,2.9-1.8,4.3-2,4.3-2.9.9.8,2.5-.9-2.6,3.8-.6,1.4-3.4,2,0-.4-4.2,1.9,1-.2,1,0,0,.5.2-1,2.7.4,4.2-1.4,3.2-2.2,7.7-7.1,5.8-10.4-4-10.9,184.7-.8,188-4.2,0-1,.2-6.2,2.2-2.4.3,1.7-2.2,4.5,0,4.8,5.1,2.5,10.6-1.8,12.5,3.9,1.3-2.1,3.2,1.1,4.1,1.5,4.3-1.3,5.9-.7,10,0,5.9.3-15.5,7.1-19.4,11,1.4,2.1,7.8-1.4,9.6-1.5-3.8,4.2,1.7,3.2,5.1,1.5,3.9.4,13.3-7.1,10.1-.1,2.3-1.6,3.8-2.2,5.9,1,6.8,5.3,16.4-7,21.8,5.6-6.9,1.2-13.5-2.3-20.4,3.2,2.7-3.1.8-1.5-1.7-.4.9-3.6-10.1,7.5-11.7,9.6,12.9-7.8-6.3,10.2-6.1,16.3-6.9,16.8,12.6,3.6,13.1-5.3-2-6.5,7.1-13.2,12.2-16.6-3.5,7.5,0-.7,5.4-1.8-2.3-.4,1.1-3,2.1-3.2,9.7,1.9,8.3,10.5,1,14.9-3.2.7-4.1,5-.2,2.8,4.6-4.3,8.2-3.4,5.6,3.4,2,6.4-19.8,12.2-8,15.3-.5,3.4,24.4-5.7,31-10.7,1.8-2-2.4-5.1,4.7-5.2,19.9,5,14.9-10.1,32-13.9,10.7.4,28.6,1.5,33.7-8.9,3-2.7,10.3-14.1,13-10.6-.2,1.9,4.1,0,4.6-.2,8,1.2-4.5,12.3.2,15.5-2,3.5,1.9,2,.7,6.1-3.8,2.3-6.2,1-8.7,3.8,0-3.1-2,.4-2.3-1.3,0,.7-1.7.9-1.2,2.2-2.2-1.6.5-3.6-2.6-1.4-2.7,5.3-6,2.8-7.3,5,.7-5.2-.2,2.4-1,0-1.1.8-1.1.9-.5-.4-5.6,3.4-8.6,9.4-11.9,13.2,2.1,1.1,1.3,2.9,2.4,4.8,2,1.3,4.5-1,2.4-2.8,1.5,0,1.3,2.2.8,3-5,3.1-4.7-.5-9.5,2,1-3.3.8-.5-.5-2.2-1.8,4.7-6.9,3.4-10.2,4.3-6.2-1.1-12.6,8.7-9.2-.4-4.1,8.3-2.8,10.5-8.4,15.4-5.1,5.1-3.2,5.7-7.8.8-1.4-2.3,2.3-3.1,3.5-4.1-7.2,1.1-1.6,7.9-4,11.4,2.2,1.7-5.4,6.5-7.5,9.9-6.5,8,4.7-7.8.7-4.3,1.5-1.5.7-4.9-.4-2.5-1.6-1.1-.6-4.1,1-3-.1-.6-.9-1.8-1.7-1.4,1-.7,3.3-1.9.3-1.4,2.1-3.2,2.9-3.1,5.8-5.9-1.5,1.1-7.2,1.4-5.8,5-1.7-.7-2.7,10-2.9,2.8-1.5,2,2,3.4.5,5.1-4.6-4.5-6.5-.6-2.6-7.1-.7,2.5-5.8,4.5-1.3,5.2,6.1,2,3.2,9.3-.1,2.1-1,2.3,5.8,5.7,1.5,5.8.7,2.1-1.6.2-1.9-.7,7.5,8.4-7.6-1.5-1.5,2.1,2.7,2.6,1.2,3,4.7,2.6,1.3,2,.8,13.4.3,5.6-.2-5.2-.7-1.9-.7,1.5-.4-3.2-2.2,1.5-4.2-.7,1.2.8-.7,1.6-1.5,1.2-.8-3.4-.6-1.4-.7.8,8.2-1.8,1.3,3.7,6.2,0-.6,6-6.7,5.1-9.9,3.7,2,1.2,3.8,1.8,1.8,3.8-5.7,1.7-.3.2,1.1,1.1,2.9,1.3-9.2,2.3-8.2,3.6-3.6,3.3-14.3,8.9-15.9,9.7-.2,1.7-5.5,6.6-6.6,4.9,1,3-6.7,2.8-4.9,3.3-2.2.4,1.6.2-.7,1.1,1.6.6-2.1.7-1.7-1.2,1.2,4.1-3.6,4.5-4.8,7.1,1.9-1.1-1.8,3.8-2.6,2.6-5.5,26.1,4.9,22-.5,46.8,0,4.3-7.9,10.2-8.4,5.2,1.8,2.1,1.2,0-.1-1.1-.9-3.8-6.8-7.6-2.4-10.7-2.7,2.4-2.5.5-1.5-2.2-1.6,0-.9,2.1-2.6,0-1.7-4.2.7-4.7,1.4-8.3-.5,1.2-2.5-2.4-1.4.4-3.9,5,2-6.6,1.5-9.6-10.1-20-12.9,1.1-18.8-9.5,1,.8,1.3-.2.3-.3-1-2.5-1.6.7-6.1-2.5,5.8-.8-2.6-.3-4.8.2,3.2-.3.7-2.4-.8-.2-2.5,0-.4,1.5-5.5,1.3,1.6.6.9-3.3.6-4.1-.7,1.6-1.3,3.2-3.4,3.2-6.3-1-7.7,3.3-13.3-.1-.7,0-2.9,1.9-1.8,2.5,2.1,1.3,6.9-2.2,3.5,1.1.5,1.3,1,.6,1.6,0,4.6-.2-2.3,2.6-1.3,3.8,3.3,2.9,5.4,3.1.3,5.2,2.6-2.1-2.6-4.8-4.4-5.4.6,1.2.6,3.7-1.3,4,.2-2.8-2.4-1.3-3.3-.3-2,.4-4.2-1.9-3.1-3.9-1.1,2-4.3-2.4-3.7-2.2-2.9,2.6-11.3,3.4-10.4-2.2-.3.8-.4,2.6-1.4,2.8-2.6.2-3.9.7-2.2-2-1.9,3.4-5,3.1-8.7,5.5,1.5-1.6,3.9-2.2.4-1.4,2.1-3,0-1.3-1.6-1.4,2.2,6.3-14.2,11.4-9.5,9-1.6,1.1-2.5-1.9-3.4.5.2-2.1-2.6,1.3,0,1.2-.9.8-2.3,1.2-2.9-.1-.6,3.9-2.4,1.7-4,3.5,3.6-.4-.7,2-2.6,1.9,3.1.3-.9,6.9-2.8,3.5,3.3,4,.4,1.3.7,6.5-1.1,4.8,2.4,9.6-4,5.5-6.6.2-11.3-6.2-9.3-12.6-2.8-3.2-4.6-8.2-4.8-12.9-7.8-21.7-25.2,16.9-27.4-12.8-2.2-2.9-6.7-9.3-9.3-11.3-1.8.7-16.6-2.7-13.3,3.8,0,0-20.2-.1-20.2-.1,1.1-1.5-29.7-8.9-22.3-11.8-34.1,4.7-2.1-4.7-35.8-16.6,3.6-5-1.3-9.6-2.3-14.8,0-2.6,5.1-4,1-5.7-1.8-3.1,0-9.7,2.1-3.9.6-2-.6-4.2,1.8-5.2-2.1-2.3-1.9,2.1-3.2,1.8-.9-.2-1.9-2.5-2.8-1.2.8-2.2,2.5-.4,1.1-2.7"/>
    <path id="path3780" class="st2" d="M323.1,289.6c.8-2.7-1.7,1.1,0,0"/>
    <path id="path3782" class="st2" d="M324.1,286.9c-.3.1-.5.4-.4.7.1-.2.3-.5.4-.7"/>
    <path id="path3784" class="st2" d="M327.8,282.5c-.9-.5-1.3.6-.6,1.2-.3-.6,0-1,.6-1.2"/>
    <path id="path3818" class="st2" d="M327.3,281.1c.2.8-1.5,1.2-1.4,2.7,1.6,2.7-2.5-1.5,1.4-2.7"/>
    <path id="path3764" class="st2" d="M275.9,404.8c.5-2.3-3,.8,0,0"/>
    <path id="path3766" class="st2" d="M277.4,403.7c-.9,1.4,1.8.7,2.2.1-.7.5-1.5,0-2.2-.1"/>
    <path id="path3768" class="st2" d="M283.2,413.1c-1.3.4,1.5,2.7,0,0"/>
    <path id="path3770" class="st2" d="M284.5,418.7c.6.5.7,1.8,1.7,1.3-.1-.9-1-1-1.7-1.3"/>
    <path id="path3820" class="st2" d="M424,460.2c.6-.6,1.1-1.4,1.6-2.2-1.9,1.2-4.3,6.6-1.6,2.2"/>
    <path id="path3822" class="st2" d="M428.9,454.7c0,1.1,2.3-1.1,3-1.6-1,.5-1.9,1.1-3,1.6"/>
    <path id="path4840" class="st2" d="M325.3,279.3c-.8.1-1,.7-.4,1.3.6-.2.9-.7.4-1.3"/>
    <path id="path4844" class="st2" d="M327.3,278.5c-.5.2-1,.5-1.4.9.6.2,1.9,0,1.4-.9"/>
    <path id="path4846" class="st2" d="M326.6,279.8c-.3.2-.4.5-.5.8.2-.3.3-.5.5-.8"/>
    <path id="path4852" class="st2" d="M328.8,278.3c0,.2,0,.5,0,.7,0-.2,0-.5,0-.7"/>
    <path id="path3836" class="st2" d="M516.4,441.7c-.6-.3-.3-1.1,0-1.5-.2.5-.1,1,0,1.5"/>
    <path id="path3860" class="st2" d="M547.9,430.8c-.2.5-.5,1-.8,1.5,0-.6.3-1.1.8-1.5"/>
    <path id="path3824" class="st2" d="M445.4,445.1c-.6.6-1.4,1-2,1.6.7-.4,4-2.5,2-1.6"/>
    <path id="path3826" class="st2" d="M469.2,442.8c-.5-.9-1.6-.5-2.2,0,.7.5,1.6,1,2.2,0"/>
    <path id="path3828" class="st2" d="M472.6,445.6c.9-2-2.2.2,0,0"/>
    <path id="path3830" class="st2" d="M488.7,438c-.2.1-.5.3-.7.4.7.5.9.4.7-.4"/>
    <path id="path3838" class="st2" d="M518,442.2c.9.4,2.2-.5,3-.9-.6.5-2.1,1.5-3,.9"/>
    <path id="path3862" class="st2" d="M548,453.5c-.9,1.2,1-4.4,0,0"/>
    <path id="path3864" class="st2" d="M548.8,457.7c.4,1.7.7,3.5.6,5.2-.3-1.7-.8-3.4-.6-5.2"/>
    <path id="path3856" class="st2" d="M545.8,479.4c-.8,1.1-1.7,2-2.7,3,.9-.8,1.3-2.8,2.7-3"/>
    <path id="path3840" class="st2" d="M533.4,466.7c0,.2,0,.5-.1.7,0-.2,0-.5.1-.7"/>
    <path id="path3842" class="st2" d="M533.5,469.1c.2.2.5.4.7.6-.3,0-1.1-.6-.7-.6"/>
    <path id="path3844" class="st2" d="M534.1,469.3c0-.5,0-1-.2-1.5.4.5.4,1,.2,1.5"/>
    <path id="path3848" class="st2" d="M535.3,468.9c.3-.7.8-1.2,1.5-1.4-.6.4-.9,1-1.5,1.4"/>
    <path id="path3872" class="st2" d="M600.9,393.7c-1.1,0,3.9-6.5,0,0"/>
    <path id="path3874" class="st2" d="M626.3,347.1c-.3.5-.8.9-1.4,1.1.2-.6.7-1.1,1.4-1.1"/>
    <path id="path3876" class="st2" d="M631,346.9c-5,1.3-5.7-.2.1-2.3,3.4,1.4,13-4.1,6.4,0,.9.5,1.3-.4,2-.8,7.8-.9-5.4,3.2-8.5,3.1"/>
    <path id="path4104" class="st2" d="M649.3,338.6c-.1.6-.5,1.2-1.1,1.5,0-.6.4-1.4,1.1-1.5"/>
    <path id="path4106" class="st2" d="M653.4,340c.4,1.2-1.5,1-2.2,1,.7-.3,1.3-1.1,2.2-1"/>
    <path id="path4108" class="st2" d="M656.6,341.9c-3.2.4,1.6-2.1,0,0"/>
    <path id="path4110" class="st2" d="M674.3,315.2c-.2.2-.3.5-.5.7,0-.4.2-.6.5-.7"/>
    <path id="path4112" class="st2" d="M675.6,316c0,.6-.3.9-.9.9.1-.5.4-.8.9-.9"/>
    <path id="path4114" class="st2" d="M677,316.7c-.3.1-.5.2-.8.3.2-.1.5-.2.8-.3"/>
    <path id="path4116" class="st2" d="M678.8,314.6c.6.9-.8,1.3-1.3,1.7-.7-.8.4-2,1.3-1.7"/>
    <path id="path4190" class="st2" d="M555.1,290.1c4.8-2.3-3.8-1.3-4.7,1.2.3,2.8,1.5-.2,4.7-1.2"/>
    <path id="path4192" class="st2" d="M555.3,283.1c-.8-.5-6.3,1.7-5.9,2.8,2.1-.6,3.9-2.1,5.9-2.8"/>
    <path id="path4194" class="st2" d="M579.5,300.4c-.6.4-1.1.8-1.5,1.3,1,0,2.5.2,1.5-1.3"/>
    <path id="path4196" class="st2" d="M565.3,303.6c-.4-.7-1,.8-1,1.2.5-.2,1-.6,1-1.2"/>
    <path id="path4198" class="st2" d="M549.7,309.9c-.8.5-.6,1.9.6.8,3.3-3.2,2.8-4-.6-.8"/>
    <path id="path3778" class="st2" d="M322.1,226.1c-1.1.3-2.4.9-3,1.9,1.1-.4,2.2-1,3-1.9"/>
    <path id="path4136" class="st2" d="M318.7,227.9c-.4.1-.6.4-.7.8.2-.3.5-.5.7-.8"/>
    <path id="path4134" class="st2" d="M319,211.7c-.9-.5-2.8,1.5-2.4,2.4,1.4-.3,2.5-.6,2.4-2.4"/>
    <path id="path4142" class="st2" d="M304.1,223c-1-.3-1.9.5-2.2,1.4.7-.6,1.5-.9,2.2-1.4"/>
    <path id="path4152" class="st2" d="M304.8,222c-.3.1-.6.4-.7.7.2-.2.5-.5.7-.7"/>
    <path id="path4166" class="st2" d="M308.9,218.4c-.3,0-.5,0-.7.2.2,0,.5-.1.7-.2"/>
    <path id="path3772" class="st2" d="M313.6,205.9c2-.3-1.6,1.7-3.8,3.7,4-.7,7.2-2.5,8.4-4.9,0-1.4.7-2.3,1.6-3.2-1.3,5.7-.7,1.9,1.5-.8-5-1.4-3.7,0-7.8,5.2"/>
    <path id="path3774" class="st2" d="M315.2,223.6c1.7-.2,3.1-2.6,1,0,3.6-2.7,2.9-1-.4.4,2.4,0,2.2,1.5,5.8-2.6,3.4-6-6.4-.5-6.5,2.3"/>
    <path id="path3654" class="st2" d="M67.8,238.6c-1.1-1.9-5,1.2-6,1.7-14.8,6.4-1.1,1.7,6-1.7"/>
    <path id="path3656" class="st2" d="M66.4,240.6c2.4.2,15.2-3.6,11.2-3.7,3.2-.7,5.8-3.3.9-1,4.5-3.7-6.7.5-1.7.9-1.7.5-10.8,3.1-10.4,3.8"/>
    <path id="path3658" class="st2" d="M79.9,236.9c.6-.3,1.3-.6,1.8-1.1-.7.2-1.6.2-1.8,1.1"/>
    <path id="path3660" class="st2" d="M84.9,234.2c.8-.4,1.7-.3,2.4-.8-.4-1-4.5-.1-2.4.8"/>
    <path id="path3662" class="st2" d="M87.8,233.6c.7-.4,1.3-1.1,1.9-1.5-.9,0-1.7.7-1.9,1.5"/>
    <path id="path3664" class="st2" d="M88.9,234.1c.1-.6-.1-.7-.7-.2.2,0,.5.1.7.2"/>
    <path id="path3666" class="st2" d="M91.7,233.5c-.5,0-1,0-1.4.4.5,0,1,0,1.4-.4"/>
    <path id="path3668" class="st2" d="M96.7,229.4c-3.7,3.5,11.4-1.2,12.6-1.1-.6-4.6-8.2-.8-12.6,1.1"/>
    <path id="path3670" class="st2" d="M109.3,230.4c-.5,0-.7.1-.7.7.8.3,2.1-.4.7-.7"/>
    <path id="path3672" class="st2" d="M117.1,226.5c-.6,0-2,0-1.5,1,.6-.2,1.1-.6,1.5-1"/>
    <path id="path3730" class="st2" d="M230.5,190.9c-.5-.1-1.1.3-1.5.5.6,0,1.1-.2,1.5-.5"/>
    <path id="path3732" class="st2" d="M233,182.2c-.6-.3-1.8.8-2.2,1,.8-.3,1.5-.6,2.2-1"/>
    <path id="path3742" class="st2" d="M254,186c-5.9,3.7,4.7-.9,6.9-2.3-.6-.9-4,2.1-6.9,2.3"/>
    <path id="path3746" class="st2" d="M258.3,182.6c-.9-1.4-5.9,3.9,0,0"/>
    <path id="path3748" class="st2" d="M258.2,180c-.4.2-.6.2-.6.8.2-.3.4-.5.6-.8"/>
    <path id="path3752" class="st2" d="M260.5,178.7c-.6.2-1.2.6-1.7,1.1.7-.1,1.6-.2,1.7-1.1"/>
    <path id="path3754" class="st2" d="M267.3,182.9c-.3-1.3-5.1.1-3,.4-3.3,1.5,1.6-.2,3-.4"/>
    <path id="path3760" class="st2" d="M274.9,186c-5.8,1.9-.8.9,0,0"/>
    <path id="path3700" class="st2" d="M183.5,213.2c-.8,0-1.7,0-2.2.8.8.2,1.7-.2,2.2-.8"/>
    <path id="path3706" class="st2" d="M195.8,208.9c-1.2-.7-3.4-.5-3.7,1.2,1.2-.4,2.5-.9,3.7-1.2"/>
    <path id="path3712" class="st2" d="M202.6,200.9c-.5,0-.8.3-1.1.7.8.3,1.9.2,1.1-.7"/>
    <path id="path3718" class="st2" d="M206.1,202.4c-.4-.1-.3-.3-.7.1.2,0,.5-.1.7-.1"/>
    <path id="path3720" class="st2" d="M212.5,197.2c-.8-.5-1.9.2-2.2.9.8-.1,1.6-.4,2.2-.9"/>
    <path id="path3722" class="st2" d="M211.3,197.1c-.3,0-.5.2-.8.4.3-.1.5-.2.8-.4"/>
    <path id="path3724" class="st2" d="M212.7,200c-.3,0-.6.2-.8.5.3-.2.5-.3.8-.5"/>
    <path id="path3674" class="st2" d="M121.9,225.1c-.4-.2-.8-.2-1.2.1,1.8-1.1-.5,1.5,1.2-.1"/>
    <path id="path3676" class="st2" d="M130.8,223c-1.5-.1-4.2,2.6-1.4,2,3.4-2.5-.3-.6,1.4-2"/>
    <path id="path3678" class="st2" d="M132.2,225.7c2.4-.9,3.2-2,.2-.7-2.8,1.7-3.9,2.8-.2.7"/>
    <path id="path3680" class="st2" d="M132.7,223.4c-.5-.2-1.2.2-1.5.5.6.4,1.2,0,1.5-.5"/>
    <path id="path3682" class="st2" d="M134.6,222.7c-.4-.3-1.1,0-1.4.4.5,0,1-.2,1.4-.4"/>
    <path id="path3684" class="st2" d="M136.9,224.3c-1,0-1.5,1.1-2.3,1.5,1,0,1.7-.9,2.3-1.5"/>
    <path id="path3686" class="st2" d="M136.1,225.8c-.5.3-1,.6-1.4.9.6,0,1.1-.4,1.4-.9"/>
    <path id="path3688" class="st2" d="M135.4,186c2.8,4,16.9-2.5,8.2-2.9-2.1,1-8.3.2-8.2,2.9"/>
    <path id="path3690" class="st2" d="M158.8,196.7c-1.8,2.1,3.1-.4,3.9-1.2-1.3.5-2.7.6-3.9,1.2"/>
    <path id="path3694" class="st2" d="M163.4,213.4c.5,0,.3,0,0,0-1.3.6.2.6,0,0"/>
    <path id="path3696" class="st2" d="M168.1,218.8c-.7,0-1.3.5-1.4,1.2.5-.3,1-.7,1.4-1.2"/>
    <path id="path3698" class="st2" d="M181.3,213.3c-1.3-.3-3,.6-3.7,1.6,1.2-.6,2.6-.8,3.7-1.6"/>
    <path id="path3702" class="st2" d="M184.4,213.6c-.6,0-1.1,0-1.5.4.5,0,1-.1,1.5-.4"/>
    <path id="path3704" class="st2" d="M187.3,210.7c-7.4,3.4,16.4-4.5,10.7-4.3,5,.5,6.7-.9,6.8-3.8-.8-.2-2.8.7-3.2,1.4,3.2-3-2.9-.8-3.2.2-1.9,0,.4-2.7-3.4-.4.9.3-4.4,5.7-2.3,1.1-3.6-2.4-12.1,8.3-4.8,4.1-5.4.7,3.1-1.2-.8.7,3.9-1.3,2.5-.7.1.9"/>
    <path id="path3710" class="st2" d="M199.9,202.2c-2.6.1,1.8,1.9,0,0"/>
    <path id="path3714" class="st2" d="M203.8,202c19.3-4.8-3-3.7,0,0"/>
    <path id="path3726" class="st2" d="M213.6,190.7c-.6,0-1.1.3-1.5.6.6,0,1.1-.1,1.5-.6"/>
    <path id="path3728" class="st2" d="M216.9,194.4c-.5-.3-1.1,0-1.5.3.5,0,1-.1,1.5-.3"/>
    <path id="path3708" class="st2" d="M201,157.9c-.1-1-2,0-2.3.3.8.1,1.6,0,2.3-.3"/>
    <path id="path3796" class="st2" d="M151.3,161.3c2.9-3.4,5.4-1.3,8.9-1.2-4.2,1.6-8.6,2.7-8.9,1.2"/>
    <path id="path3800" class="st2" d="M251.3,186c.7-.4,1.5-.8,2.3-1.1-.6.6-1.5.9-2.3,1.1"/>
    <path id="path3802" class="st2" d="M252.2,185.4c-3.3,1.3,1.9-1.5,0,0"/>
    <path id="path3814" class="st2" d="M320.6,199.3c.3.2.4.4.5.7-1.6.6-1.9-1-.5-.7"/>
    <path id="path4118" class="st2" d="M303.1,213.3c4.5-2.2-1.4.7-.7,3.3,2.6-1,10.8-10.6,5.5-10.2,2.5-1.2-4.3.7-1.7,1.6-1.5,1.3-2.1,3.6-3.2,5.3"/>
    <path id="path4120" class="st2" d="M304.4,218.1c.2-.7,11.9-7.4,5.8-5.2,4-2-.5-2.9-1.9-.4,2.3.6-3.8,3.6-3.9,5.5"/>
    <path id="path4122" class="st2" d="M305.3,202.9c-1.3,7.3,4,2.1,1.7,1.9,1.9-1.7,2,1,3.9,1.5,1.7-.2,3.4-3.1.5-2.2-2.9-2.9.6-.1,2.3-.6,2.6-2.8.5-3.1-3.2-1.2,5.6-3.1-1.6-2.5-3-1.1-.5,1.8-1.2,1.7-.8,0-.8,0-2.7,2.3-1.3,1.7"/>
    <path id="path4124" class="st2" d="M311.2,206.8c-.7-.5-1.2.1-.6.7.2-.2.4-.5.6-.7"/>
    <path id="path4126" class="st2" d="M311.3,214.6c2.8-.3,4.5-.7,4.5-3,1,3,3.5-1,2.4-1.7-5.4-1.6-5,1.2-6.8,4.6"/>
    <path id="path4130" class="st2" d="M317,214.4c-.8.2-3.7,0-3,1.5.4,1.1,2.8-1,3-1.5"/>
    <path id="path4132" class="st2" d="M318,215.4c-2.1,0-3.8,1.3-2.5,3.4,1.3-.5,3.8-2.7,1.1-2.4.6-.1,1.1-.5,1.4-1"/>
    <path id="path4140" class="st2" d="M305,207.4c-.9,0-3,1.9-3.4,2.7,1,0,4.1-1.2,3.4-2.7"/>
    <path id="path4144" class="st2" d="M303.8,218.9c-.3-.8-1.6,0-1.6.6.5-.3,1-.5,1.6-.6"/>
    <path id="path4146" class="st2" d="M303.2,222.7c.3-.2.6-.5.8-.9-.6.3-2.3.7-.8.9"/>
    <path id="path4148" class="st2" d="M305.1,224.3c-5,3.3-1.7,7.6,0,0"/>
    <path id="path4150" class="st2" d="M304.6,223.5c-.7,0-1.5.4-1.8,1.1.8.1,1.7-.1,1.8-1.1"/>
    <path id="path4154" class="st2" d="M305.6,227.1c-.8-.8-1.3.5-1.1,1.1,0-.6.5-1,1.1-1.1"/>
    <path id="path4156" class="st2" d="M307.4,225.9c-1.6,2.4.3,4.3,3.1.2-1.5,1,2-3.3,1.4-3.5-3.4-.3-1.2-1.4.6,0,1.1-3.3.8-9.4-3.3-6.3,4,1.4-2.5.2-3,2.6,1.3-.7,3.2-.4,4.2-1.6-2.2,2.9-5.9,4.4-1.6,3.7-.9,1.7-6.2,3.3-2.7,3-1.8.6.4.4.8,0-.6.9.8,1.3,1,.2-.8,1.7.2.4-.5,1.7"/>
    <path id="path4158" class="st2" d="M304.7,219.1c.4.1.7,0,.9-.4-.4,0-.7.2-.9.4"/>
    <path id="path4160" class="st2" d="M306.5,224.7c-.3.5-.8,1.1-1.4,1.4.9.3,1.7-.5,1.4-1.4"/>
    <path id="path4162" class="st2" d="M306.2,222c-.3,0-.6.2-.8.4.3-.1.5-.3.8-.4"/>
    <path id="path4164" class="st2" d="M307.9,219.8c-.6,0-2.9-.6-2,.8.5-.7,1.3-.5,2-.8"/>
    <path id="path4168" class="st2" d="M315.1,226.4c-.7.1-1.4.2-1.9.6.7.5,1.6.2,1.9-.6"/>
    <path id="path4170" class="st2" d="M314.6,222.9c-.7.4-1.6,1.1-1.2,1.9.6-.4,1.8-1,1.2-1.9"/>
    <path id="path4172" class="st2" d="M315.5,224.3c-.8-.6-1.9,1.2-2.1,1.7,1,.4,2.3-.6,2.1-1.7"/>
    <path id="path4176" class="st2" d="M309.2,219.2c-.2.2-.5.5-.8.6-.2-.7.1-1,.8-.6"/>
  </g>
  <g id="ky">
    <path id="ky-" class="st2" d="M529.6,531.3c4.2-1,.2,1.5,0,0"/>
    <path id="ky_" class="st0" d="M531.9,524.7c7.8-.1,7.8,12.1,0,12-7.8.1-7.8-12.1,0-12Z"/>
  </g>
  <g id="pm">
    <path id="pm-" class="st2" d="M768.3,292.3c-.8,3.7-1.5.4,0,0"/>
    <path id="pm_" class="st0" d="M766.2,287.3c7.8-.1,7.8,12.1,0,12-7.8.1-7.8-12.1,0-12Z"/>
  </g>
  <g id="aw">
    <path id="aw-" class="st2" d="M609.4,590.5c-.8-1.5,1-.4.9.6-.3-.2-.6-.4-.9-.6"/>
    <path id="aw_" class="st0" d="M606.7,580.1c7.8-.1,7.8,12.1,0,12-7.8.1-7.8-12.1,0-12Z"/>
  </g>
  <g id="sh">
    <path id="sh-" class="st4" d="M1090,847.4c.3-.5.3-1,0-1.5-.6.4-.6,1,0,1.5"/>
    <path id="sh_" class="st3" d="M1090.4,838.2c7.8-.1,7.8,12.1,0,12-7.8.1-7.8-12.1,0-12Z"/>
  </g>
</svg>